<svg xmlns="http://www.w3.org/2000/svg" xmlns:xlink="http://www.w3.org/1999/xlink" width="24" height="24" viewBox="0 0 24 24">
    <defs>
        <path id="prefix__a" d="M0 0H24V24H0z"/>
    </defs>
    <g fill="none" fill-rule="evenodd">
        <mask id="prefix__b" fill="#fff">
            <use xlink:href="#prefix__a"/>
        </mask>
        <g mask="url(#prefix__b)">
            <path fill="#919191" d="M12 0c3.314 0 6 2.686 6 6v3h.75C19.993 9 21 10.007 21 11.25v10.5c0 1.243-1.007 2.25-2.25 2.25H5.25C4.007 24 3 22.993 3 21.75v-10.5C3 10.007 4.007 9 5.25 9H6V6C6 2.762 8.566.122 11.775.004zm6.75 10.5H5.25c-.414 0-.75.336-.75.75v10.5c0 .414.336.75.75.75h13.5c.414 0 .75-.336.75-.75v-10.5c0-.414-.336-.75-.75-.75zM8.625 17.25c.621 0 1.125.504 1.125 1.125S9.246 19.5 8.625 19.5 7.5 18.996 7.5 18.375s.503-1.125 1.125-1.125zm3.375 0c.621 0 1.125.504 1.125 1.125S12.621 19.5 12 19.5s-1.125-.504-1.125-1.125.503-1.125 1.125-1.125zm3.375 0c.621 0 1.125.504 1.125 1.125s-.504 1.125-1.125 1.125-1.125-.504-1.125-1.125.503-1.125 1.125-1.125zm-6.75-3.75c.621 0 1.125.504 1.125 1.125s-.504 1.125-1.125 1.125S7.5 15.246 7.5 14.625 8.003 13.5 8.625 13.5zm3.375 0c.621 0 1.125.504 1.125 1.125S12.621 15.75 12 15.75s-1.125-.504-1.125-1.125S11.378 13.5 12 13.5zm3.375 0c.621 0 1.125.504 1.125 1.125s-.504 1.125-1.125 1.125-1.125-.504-1.125-1.125.503-1.125 1.125-1.125zM12 1.5C9.515 1.5 7.5 3.515 7.5 6v3h9V6c0-2.414-1.901-4.384-4.288-4.495z"/>
        </g>
    </g>
</svg>
