<svg xmlns="http://www.w3.org/2000/svg" width="18" height="18" viewBox="0 0 18 18">
    <g fill="none" fill-rule="evenodd">
        <path fill="#919191" d="M8.571 0c2.367 0 4.286 1.919 4.286 4.286v2.142h.536c.887 0 1.607.72 1.607 1.608v7.5c0 .887-.72 1.607-1.607 1.607H3.75c-.888 0-1.607-.72-1.607-1.607v-7.5c0-.888.72-1.607 1.607-1.607l.535-.001V4.286c0-2.298 1.808-4.173 4.079-4.281zm4.822 7.5H3.75c-.296 0-.536.24-.536.536v7.5c0 .296.24.535.536.535h9.643c.296 0 .536-.24.536-.535v-7.5c0-.296-.24-.536-.536-.536zM6.16 12.321l.102.007c.396.05.702.387.702.797 0 .444-.36.804-.803.804-.444 0-.804-.36-.804-.804 0-.444.36-.803.803-.804zm2.411 0l.101.007c.396.05.703.387.703.797 0 .444-.36.804-.804.804-.443 0-.803-.36-.803-.804 0-.444.36-.803.803-.804zm2.411 0l.1.007c.397.05.704.387.704.797 0 .444-.36.804-.804.804-.444 0-.803-.36-.803-.804 0-.444.36-.803.803-.804zM6.16 9.643l.102.006c.396.05.702.388.702.797 0 .444-.36.804-.803.804-.444 0-.804-.36-.804-.804 0-.443.36-.803.803-.803zm2.411 0l.101.006c.396.05.703.388.703.797 0 .444-.36.804-.804.804-.443 0-.803-.36-.803-.804 0-.443.36-.803.803-.803zm2.411 0l.1.006c.397.05.704.388.704.797 0 .444-.36.804-.804.804-.444 0-.803-.36-.803-.804 0-.443.36-.803.803-.803zM8.572 1.07c-1.776 0-3.215 1.44-3.215 3.215v2.142h6.428V4.286c0-1.714-1.34-3.115-3.031-3.21z" transform="translate(.429 .429)"/>
    </g>
</svg>
